/* XPM */
static char * empty_xpm[] = {
"16 16 211 2",
"  	c #CFCBBC",
". 	c #D0CFC8",
"+ 	c #C8C7C0",
"@ 	c #C0BFB9",
"# 	c #D7D7D0",
"$ 	c #DEDEDA",
"% 	c #DDDDD9",
"& 	c #DFDEDA",
"* 	c #CDCDC9",
"= 	c #DEDED9",
"- 	c #D3D2CB",
"; 	c #C9C8C1",
"> 	c #CFCFC9",
", 	c #CDCDCB",
"' 	c #C6C6C1",
") 	c #C2C1BA",
"! 	c #C6C2B3",
"~ 	c #C4C3BC",
"{ 	c #D2D1CC",
"] 	c #DAD9D5",
"^ 	c #DEDDDA",
"/ 	c #CDCCC9",
"( 	c #D0D0CC",
"_ 	c #D3D2CE",
": 	c #D4D3CD",
"< 	c #D6D6D0",
"[ 	c #CBCBC5",
"} 	c #C7C6C3",
"| 	c #BFBFB9",
"1 	c #C8C5B9",
"2 	c #D7D6D0",
"3 	c #CCCAC5",
"4 	c #C3C2BC",
"5 	c #C1C1BB",
"6 	c #C8C7C1",
"7 	c #D2D1CB",
"8 	c #D4D3CE",
"9 	c #C1C1BD",
"0 	c #C6C6C2",
"a 	c #C6C5C0",
"b 	c #C4C2BD",
"c 	c #BFBFBA",
"d 	c #BFBDB8",
"e 	c #BDBCB6",
"f 	c #C3BFB3",
"g 	c #C9C8C3",
"h 	c #B6B5B2",
"i 	c #CAC9C4",
"j 	c #B0AFA9",
"k 	c #BCBBB5",
"l 	c #C5C4BD",
"m 	c #CECEC7",
"n 	c #B9B8B2",
"o 	c #C3C2BE",
"p 	c #B9B9B3",
"q 	c #B0AFAA",
"r 	c #AAAAA4",
"s 	c #AAAAA2",
"t 	c #ABAAA3",
"u 	c #C3C0B5",
"v 	c #CECDC8",
"w 	c #D5D4CE",
"x 	c #D2D1CE",
"y 	c #B6B6B2",
"z 	c #BCBCB5",
"A 	c #C4C3BD",
"B 	c #C2C1BB",
"C 	c #B5B5AF",
"D 	c #B9B8B1",
"E 	c #ACABA4",
"F 	c #B1B0A9",
"G 	c #B3B2AC",
"H 	c #B6B5AE",
"I 	c #B6B3A4",
"J 	c #BEBDB9",
"K 	c #D8D7D3",
"L 	c #CBCBC7",
"M 	c #C4C3BF",
"N 	c #BEBEB9",
"O 	c #B5B4B1",
"P 	c #BCBBB6",
"Q 	c #BEBDB7",
"R 	c #BBBAB5",
"S 	c #A5A49D",
"T 	c #A4A29B",
"U 	c #B0AC9F",
"V 	c #9E9E99",
"W 	c #CFCECB",
"X 	c #CBCBC6",
"Y 	c #C4C4BD",
"Z 	c #CAC9C6",
"` 	c #C3C2BF",
" .	c #BBBBB8",
"..	c #C1C0BB",
"+.	c #C8C8C3",
"@.	c #CAC9C5",
"#.	c #AEADA8",
"$.	c #B4B3AD",
"%.	c #B6B5AF",
"&.	c #CECABC",
"*.	c #B7B6B1",
"=.	c #C1C1BA",
"-.	c #B7B7B0",
";.	c #A9A8A2",
">.	c #B0AFAB",
",.	c #C0C0BC",
"'.	c #B9B9B5",
").	c #C2C2BC",
"!.	c #B4B3AF",
"~.	c #BBBAB7",
"{.	c #C9C9C3",
"].	c #C7C6BF",
"^.	c #D4D1C4",
"/.	c #BFBFB8",
"(.	c #CACAC3",
"_.	c #B6B4AD",
":.	c #B0AFA8",
"<.	c #B7B6AF",
"[.	c #BAB9B2",
"}.	c #D0CFCC",
"|.	c #CCCCCA",
"1.	c #C8C7C4",
"2.	c #B6B6AF",
"3.	c #D4D2CD",
"4.	c #D6D5D1",
"5.	c #C2BFB2",
"6.	c #BBBAB2",
"7.	c #C2C1B9",
"8.	c #C0BFB7",
"9.	c #C0C0BA",
"0.	c #C8C7C5",
"a.	c #D5D5D3",
"b.	c #CCCCC8",
"c.	c #D1D1CC",
"d.	c #B3B2AB",
"e.	c #BFBBAD",
"f.	c #CDCDC8",
"g.	c #B6B5B0",
"h.	c #BDBCB5",
"i.	c #CDCCC8",
"j.	c #C3C2BB",
"k.	c #BDBDB5",
"l.	c #BEBEB7",
"m.	c #BBB9B4",
"n.	c #CCCBC7",
"o.	c #DBDBD8",
"p.	c #DADAD8",
"q.	c #AAA9A4",
"r.	c #9E9D97",
"s.	c #AEA99B",
"t.	c #BABAB3",
"u.	c #C4C4BF",
"v.	c #C6C5BF",
"w.	c #CCCBC5",
"x.	c #C0BFBB",
"y.	c #C5C4BE",
"z.	c #C5C5BE",
"A.	c #D9D8D2",
"B.	c #D7D6D1",
"C.	c #B7B6B2",
"D.	c #B3B1AC",
"E.	c #BAB5A5",
"F.	c #C1C0B8",
"G.	c #D1D1CE",
"H.	c #D4D4D0",
"I.	c #D8D7D1",
"J.	c #D5D5CF",
"K.	c #D2D2CC",
"L.	c #BBBBB3",
"M.	c #C8C6C0",
"N.	c #CECDC7",
"O.	c #C8C6C1",
"P.	c #BABAB5",
"Q.	c #C9C5B9",
"R.	c #ADACA4",
"S.	c #D2D2CB",
"T.	c #E6E6E1",
"U.	c #D8D7D4",
"V.	c #CECEC8",
"W.	c #CBC9C4",
"X.	c #BAB9B3",
"Y.	c #C8C8C1",
"Z.	c #C6C6BE",
"`.	c #D2D1CA",
" +	c #CECDC6",
".+	c #CCCBC4",
"++	c #CFCFC7",
"@+	c #C9C5B5",
"#+	c #C5C4BC",
"$+	c #B4B3AB",
"%+	c #D8D8D1",
"&+	c #CECDCA",
"*+	c #CCCCC7",
"=+	c #CDCDC7",
"-+	c #CCCBC6",
";+	c #C4C3BE",
">+	c #C5C4BF",
",+	c #CDCCC5",
"'+	c #CCCCC6",
")+	c #CBCBC3",
"!+	c #CDC9BA",
"~+	c #C1C0B9",
"{+	c #AAAAA3",
"]+	c #D3D2CC",
"^+	c #DADAD6",
"/+	c #DDDCD9",
"(+	c #CFCDC7",
"_+	c #C2C2BA",
":+	c #C1C1BC",
"<+	c #CACAC4",
"[+	c #CBCAC4",
"  . + @ # $ % & * = - ; > , ' ) ",
"! . - ) ~ { ] ^ / ( _ : < [ } | ",
"1 2 3 4 5 6 7 8 9 0 a @ b c d e ",
"f g h i j k l . m n o p q r s t ",
"u v w x y z A B ; C z D E F G H ",
"I J K g L M N O P Q R ~ S T j n ",
"U V W X Y Z ` y  ...+.@.#.r $.%.",
"&.*.i =.-.;.>.,.'.* ).i !.~.{.].",
"^.. /.(._.:.<.[.c }.|.1.2.X 3.4.",
"5.).n [.6.<.7.8.9.!.0.a.b.c.<.d.",
"e.f.g.h.A i.j.k.l.m.n.o.p.} q.r.",
"s.t.2.u.v.w.x.n y.-.z.A.B.M C.D.",
"E.F.A G.H.I.J.g.K.L.M.N.O.B Q P.",
"Q.j.R.S.T.U.V.W.6 X.Y.Z.`. +.+++",
"@+#+$+<.%+K &+*+=+B -+;+>+,+'+)+",
"!+~+<.{+]+^+/+= v b (+_+:+<+(.[+"};
