/* XPM */
static char * player_xpm[] = {
"16 16 183 2",
"  	c #CECABD",
". 	c #CFCDC5",
"+ 	c #C9C8C1",
"@ 	c #C4C4BD",
"# 	c #D3D3CC",
"$ 	c #DCDBD7",
"% 	c #DDDDD9",
"& 	c #DCDBD8",
"* 	c #D2D2CE",
"= 	c #D9D9D4",
"- 	c #D3D2CC",
"; 	c #CDCCC5",
"> 	c #CFCFC9",
", 	c #CCCCC9",
"' 	c #C6C6C2",
") 	c #C2C1BB",
"! 	c #C9C6B8",
"~ 	c #D0CEC7",
"{ 	c #CFCEC7",
"] 	c #C5C4BD",
"^ 	c #C7C7C0",
"/ 	c #D2D1CC",
"( 	c #D9D8D4",
"_ 	c #DAD9D6",
": 	c #CFCECB",
"< 	c #D0D0CC",
"[ 	c #D1D0CB",
"} 	c #D1D0CA",
"| 	c #D1D1CB",
"1 	c #CBCAC5",
"2 	c #C6C5C1",
"3 	c #C0C0BA",
"4 	c #C9C6BB",
"5 	c #D1D0C9",
"6 	c #CBC9C4",
"7 	c #C4C3BD",
"8 	c #C1C0BA",
"9 	c #C8C7C1",
"0 	c #C7C7C3",
"a 	c #C7C6C1",
"b 	c #C3C2BC",
"c 	c #BFBEB9",
"d 	c #BDBCB7",
"e 	c #BBBAB4",
"f 	c #C5C2B7",
"g 	c #C9C7C2",
"h 	c #C2C1BD",
"i 	c #C5C4C0",
"j 	c #B8B7B2",
"k 	c #BDBDB6",
"l 	c #D1B4AE",
"m 	c #E0A49F",
"n 	c #DDA29D",
"o 	c #C6B3AE",
"p 	c #C0BFBA",
"q 	c #BABAB4",
"r 	c #B3B2AC",
"s 	c #AFAEA8",
"t 	c #AEAEA7",
"u 	c #AFAEA7",
"v 	c #C3C0B5",
"w 	c #CBCAC4",
"x 	c #D0D0CA",
"y 	c #CDCCC8",
"z 	c #BFB9B4",
"A 	c #E76B68",
"B 	c #F71616",
"C 	c #F71818",
"D 	c #DF8580",
"E 	c #B9B8B1",
"F 	c #AEADA6",
"G 	c #B1B0AA",
"H 	c #B4B3AD",
"I 	c #B8B5A8",
"J 	c #C0BEB9",
"K 	c #CCCBC7",
"L 	c #EA7371",
"M 	c #DC8A85",
"N 	c #ABAAA4",
"O 	c #A8A7A0",
"P 	c #B1AFA9",
"Q 	c #B7B6B0",
"R 	c #B3B0A3",
"S 	c #CAC9C5",
"T 	c #D4B8B3",
"U 	c #F43332",
"V 	c #B3AEA9",
"W 	c #ADADA7",
"X 	c #B5B5AF",
"Y 	c #B9B8B2",
"Z 	c #C8C5B8",
"` 	c #BDBCB5",
" .	c #C6C5C0",
"..	c #DB9D98",
"+.	c #C5A5A1",
"@.	c #BCBBB7",
"#.	c #C6C6C0",
"$.	c #C7C6C0",
"%.	c #D0CDC1",
"&.	c #CAC9C2",
"*.	c #C2C2BB",
"=.	c #DA9E98",
"-.	c #C9AEA9",
";.	c #C8C8C3",
">.	c #CECDC8",
",.	c #D0CFCA",
"'.	c #C5C2B6",
").	c #C4C3BC",
"!.	c #BCBBB5",
"~.	c #C4B1AA",
"{.	c #F44D4C",
"].	c #CDCDC9",
"^.	c #B6B5AF",
"/.	c #BFBBAF",
"(.	c #C5C4BE",
"_.	c #BAB9B4",
":.	c #BDBCB6",
"<.	c #E18984",
"[.	c #E3B5B3",
"}.	c #D6D6D3",
"|.	c #C7C6C3",
"1.	c #B0AFAA",
"2.	c #A5A49E",
"3.	c #B4B0A3",
"4.	c #BBBBB3",
"5.	c #BBBBB4",
"6.	c #C4C3BE",
"7.	c #C8C8C2",
"8.	c #E39793",
"9.	c #F53736",
"0.	c #F24542",
"a.	c #D9A7A2",
"b.	c #D5D5CF",
"c.	c #D4D3CE",
"d.	c #B7B6B2",
"e.	c #B2B0AB",
"f.	c #BBB7A9",
"g.	c #BFBEB5",
"h.	c #CECECA",
"i.	c #D4D4D0",
"j.	c #D6D5CF",
"k.	c #D0CCC7",
"l.	c #CDAEA9",
"m.	c #D2B9B3",
"n.	c #BFBFB8",
"o.	c #C7C5BF",
"p.	c #CDCCC6",
"q.	c #C7C3B7",
"r.	c #C1C0B8",
"s.	c #B8B7B0",
"t.	c #CECDC7",
"u.	c #DEDED9",
"v.	c #D8D8D4",
"w.	c #CFCFCA",
"x.	c #C9C8C3",
"y.	c #BFBEB8",
"z.	c #C6C6BF",
"A.	c #C8C8C1",
"B.	c #CCCBC5",
"C.	c #CBCAC3",
"D.	c #CCCBC4",
"E.	c #C9C5B7",
"F.	c #C3C1B9",
"G.	c #B6B6AE",
"H.	c #D7D7D3",
"I.	c #D1D0CD",
"J.	c #CFCEC9",
"K.	c #CBCBC5",
"L.	c #C5C5BF",
"M.	c #CCCCC5",
"N.	c #CCCCC4",
"O.	c #CBC7B9",
"P.	c #C2C0B8",
"Q.	c #B3B3AC",
"R.	c #D0CFC9",
"S.	c #D9D9D5",
"T.	c #DBDAD7",
"U.	c #DAD9D5",
"V.	c #CFCEC8",
"W.	c #C7C5C0",
"X.	c #C3C3BD",
"Y.	c #C9C9C3",
"Z.	c #CACAC4",
"  . + @ # $ % & * = - ; > , ' ) ",
"! ~ { ] ^ / ( _ : < [ } | 1 2 3 ",
"4 5 6 7 8 9 } / 0 2 a b b c d e ",
"f g h i j k l m n o p q r s t u ",
"v w x y z A B B B C D E F F G H ",
"I J / K L B B B B B B M N O P Q ",
"R s S T B B B B B B B U V W X Y ",
"Z `  ...B B B B B B B B +.@.#.$.",
"%.&.*.=.B B B B B B B B -.;.>.,.",
"'.).!.~.C B B B B B B {.].K !.^.",
"/.(._.:.<.B B B B B B [.}.|.1.2.",
"3.4.5.6.7.8.9.B B 0.a.b.c.i d.e.",
"f.g.) h.i.j.k.l.m.n.o.p.w 6.c d ",
"q.r.s.t.u.v.w.x.9 y.z.A.p.B.C.D.",
"E.F.G.k b.H.I.J.K.6.x.L.$.D.M.N.",
"O.P.G.Q.R.S.T.U.V.W.w @ X.Y.Z.w "};
