/* XPM */
static char * void_xpm[] = {
"16 16 155 2",
"  	c #46485D",
". 	c #363849",
"+ 	c #232531",
"@ 	c #3A3C4E",
"# 	c #3F4155",
"$ 	c #363748",
"% 	c #292A37",
"& 	c #2B2C39",
"* 	c #21222B",
"= 	c #383949",
"- 	c #3F4054",
"; 	c #292A36",
"> 	c #333442",
", 	c #3C3E50",
"' 	c #404256",
") 	c #393B4D",
"! 	c #313242",
"~ 	c #37394A",
"{ 	c #23232F",
"] 	c #3D3E51",
"^ 	c #3D3F52",
"/ 	c #333544",
"( 	c #2F303F",
"_ 	c #2E2F3D",
": 	c #1F202A",
"< 	c #242530",
"[ 	c #1E202A",
"} 	c #272835",
"| 	c #252632",
"1 	c #383A4B",
"2 	c #373849",
"3 	c #3C3D50",
"4 	c #43455A",
"5 	c #242532",
"6 	c #22232F",
"7 	c #2D2F3D",
"8 	c #353646",
"9 	c #323342",
"0 	c #262632",
"a 	c #353546",
"b 	c #333444",
"c 	c #44455A",
"d 	c #38394A",
"e 	c #262734",
"f 	c #393A4C",
"g 	c #2C2E3C",
"h 	c #2B2D3B",
"i 	c #303141",
"j 	c #2D2E3B",
"k 	c #20212B",
"l 	c #232430",
"m 	c #414358",
"n 	c #47495F",
"o 	c #414256",
"p 	c #353748",
"q 	c #303140",
"r 	c #3C3E52",
"s 	c #282936",
"t 	c #2A2C39",
"u 	c #323443",
"v 	c #3E4052",
"w 	c #434659",
"x 	c #47495E",
"y 	c #313141",
"z 	c #2E2F3E",
"A 	c #343445",
"B 	c #2D2E3C",
"C 	c #404155",
"D 	c #2E303E",
"E 	c #2F303E",
"F 	c #44465B",
"G 	c #343546",
"H 	c #383A4C",
"I 	c #2A2B39",
"J 	c #3A3B4C",
"K 	c #3B3C4E",
"L 	c #313140",
"M 	c #313344",
"N 	c #3A3B4E",
"O 	c #424459",
"P 	c #424357",
"Q 	c #37384A",
"R 	c #282937",
"S 	c #3C3D4F",
"T 	c #343444",
"U 	c #2D2E3D",
"V 	c #2C2D3C",
"W 	c #313241",
"X 	c #252733",
"Y 	c #393A4B",
"Z 	c #272834",
"` 	c #2C2D3B",
" .	c #353747",
"..	c #2E303F",
"+.	c #414356",
"@.	c #333546",
"#.	c #414357",
"$.	c #2C2C3B",
"%.	c #292936",
"&.	c #363747",
"*.	c #343545",
"=.	c #363647",
"-.	c #2A2A38",
";.	c #23242F",
">.	c #2B2C3A",
",.	c #2E2F3F",
"'.	c #393B4C",
").	c #363746",
"!.	c #21222D",
"~.	c #22232E",
"{.	c #1D1D28",
"].	c #1C1D26",
"^.	c #424458",
"/.	c #46495E",
"(.	c #242430",
"_.	c #282935",
":.	c #252531",
"<.	c #292937",
"[.	c #2A2B38",
"}.	c #20202B",
"|.	c #30313F",
"1.	c #313342",
"2.	c #414155",
"3.	c #3C3E51",
"4.	c #21212D",
"5.	c #2D2D3B",
"6.	c #404154",
"7.	c #3B3B4E",
"8.	c #272836",
"9.	c #333445",
"0.	c #3E4153",
"a.	c #3D3E50",
"b.	c #373848",
"c.	c #2F313F",
"d.	c #262733",
"e.	c #434559",
"f.	c #3E3F53",
"g.	c #23232E",
"h.	c #323242",
"i.	c #333344",
"j.	c #333545",
"k.	c #292A38",
"l.	c #434458",
"m.	c #494A60",
"n.	c #343544",
"o.	c #3F4154",
"p.	c #2B2C3C",
"q.	c #3D3F51",
"r.	c #424559",
"s.	c #2D2F3E",
"t.	c #4A4C62",
"u.	c #323343",
"v.	c #1E1F28",
"w.	c #353648",
"x.	c #353647",
"  . + @ # $ % & * = - ; > = , ' ",
") ! ~ { ] ^ / ( _ : < [ } | < 1 ",
"2 3 4 5 6 7 8 9 0 a ] b c d _ e ",
"f g e h i j k l m n o 9 p q r ^ ",
"s t u 2 v c } 9 w x y z A B q C ",
"D E 4 F G H I J K L M N O P Q R ",
"S T U V W X s C Y Z 4 ` U  ...i ",
"+.s @.S #.z l Y q l # $.N $ %.1 ",
"B 9 O &.@.b _ #.*.Z =.-.} % ;.>.",
") 0 ,.p '.).!.G ) ~.{.].l 1 ^.P ",
"/.'.(.G _.:.<.[.}.s (.|.G 1.o 2.",
"3., i 4.W 5.q 6.4.s 7.2 ^ h 8.R ",
"9.0.| ` d a.*.b.k Y 6.b.>.I $ c.",
"1.~ d.$ e.f._ q g.v P h.z f *.i.",
"j.1 k.l.m.n.d.< | o.K p.q.f >.r.",
"Q J s.O t.k.u.B v.w.$ ` @ x.! q "};
