/* XPM */
static char * wall_xpm[] = {
"16 16 108 2",
"  	c #6D6C77",
". 	c #6D6C78",
"+ 	c #71717D",
"@ 	c #676772",
"# 	c #62616B",
"$ 	c #65656E",
"% 	c #5D5D67",
"& 	c #62626D",
"* 	c #65646E",
"= 	c #65656F",
"- 	c #71717C",
"; 	c #686873",
"> 	c #5D5C66",
", 	c #61616B",
"' 	c #6B6B77",
") 	c #6D6D78",
"! 	c #6C6C78",
"~ 	c #706F7B",
"{ 	c #70707C",
"] 	c #6B6B76",
"^ 	c #5E5D66",
"/ 	c #5F5E68",
"( 	c #64646F",
"_ 	c #62626C",
": 	c #656570",
"< 	c #60606A",
"[ 	c #5D5D66",
"} 	c #6A6A75",
"| 	c #64636E",
"1 	c #656671",
"2 	c #61606A",
"3 	c #6B6A75",
"4 	c #63636D",
"5 	c #5F5F69",
"6 	c #6A6974",
"7 	c #64646E",
"8 	c #666670",
"9 	c #5E5D68",
"0 	c #5B5B65",
"a 	c #6C6B76",
"b 	c #64636D",
"c 	c #6C6C79",
"d 	c #686874",
"e 	c #5A5A64",
"f 	c #62626B",
"g 	c #61616A",
"h 	c #6D6E7A",
"i 	c #6F6F7A",
"j 	c #74747F",
"k 	c #6F6F7B",
"l 	c #72727D",
"m 	c #767683",
"n 	c #72727E",
"o 	c #5D5E69",
"p 	c #686872",
"q 	c #54535C",
"r 	c #5C5C65",
"s 	c #6C6C77",
"t 	c #696975",
"u 	c #706F7C",
"v 	c #676771",
"w 	c #676671",
"x 	c #6C6D79",
"y 	c #63636E",
"z 	c #5A5A63",
"A 	c #696974",
"B 	c #5B5A63",
"C 	c #5E5D67",
"D 	c #5E5E67",
"E 	c #676773",
"F 	c #6B6C77",
"G 	c #696873",
"H 	c #70707B",
"I 	c #6A6975",
"J 	c #676873",
"K 	c #6E6E79",
"L 	c #6D6D79",
"M 	c #6E6E7A",
"N 	c #606069",
"O 	c #666570",
"P 	c #6A6A76",
"Q 	c #666671",
"R 	c #595962",
"S 	c #696874",
"T 	c #63626C",
"U 	c #66656F",
"V 	c #5F5F68",
"W 	c #5E5E68",
"X 	c #57565F",
"Y 	c #595861",
"Z 	c #605F69",
"` 	c #6C6B77",
" .	c #65646F",
"..	c #61626C",
"+.	c #777682",
"@.	c #696973",
"#.	c #71707B",
"$.	c #767580",
"%.	c #767581",
"&.	c #6B6C78",
"*.	c #757581",
"=.	c #71707D",
"-.	c #6F6E7A",
";.	c #747480",
">.	c #71727E",
",.	c #686772",
"'.	c #6E6F7A",
").	c #62616C",
"  . + + @ # $ % & * = - ; > , ' ",
") ! ~ { ] = ^ , / ( # _ : < [ } ",
"( | 1 2 ' 3 * 4 < 5 : 6 7 8 @ @ ",
"9 7 0 , 3 ] = a ! 6 b ' ] } c d ",
"e 5 f g ; h { i + j k l m n } 8 ",
"o > | p q _ , r s t ! ! ! u v w ",
"x y z A * B < C D : ( E F _ G . ",
"H ' ' E I ; g < b y J 7 _ 2 ( { ",
"K L ' M x u { @ | N z ; ; 8 A | ",
"O E ; P Q ! L n O b z R 7 E ; S ",
"( T ] ) @ = i L U V W X Y Z , 3 ",
"k ` a L K s y A ( _  ., ....N A ",
"+.m P = M { y V @ = y @.s ; M @ ",
"#.$.%.&.Q 6 O _ ( * s *.@ A { =.",
"} -.j ;.A W 7 } >.; 4 t ,.} s -.",
";.{ ) '.p 2 ).Q a + k 8 8 t t &."};
